<mxfile host="app.diagrams.net" modified="2023-03-07T12:26:15.148Z" agent="5.0 (Windows NT 10.0; Win64; x64) AppleWebKit/537.36 (KHTML, like Gecko) Chrome/110.0.0.0 Safari/537.36" etag="9vvMLtrq0lNvm-TMtUrG" version="21.0.2" type="github">
  <diagram name="第 1 页" id="I701nI0P2jUGHC9EIG0G">
    <mxGraphModel dx="2261" dy="756" grid="1" gridSize="10" guides="1" tooltips="1" connect="1" arrows="1" fold="1" page="1" pageScale="1" pageWidth="827" pageHeight="1169" math="0" shadow="0">
      <root>
        <mxCell id="0" />
        <mxCell id="1" parent="0" />
        <mxCell id="ng57SSePkaUnMk2hDVvI-40" value="" style="rounded=1;whiteSpace=wrap;html=1;fillColor=#e1d5e7;strokeColor=#9673a6;" vertex="1" parent="1">
          <mxGeometry x="135" y="720" width="590" height="240" as="geometry" />
        </mxCell>
        <mxCell id="ng57SSePkaUnMk2hDVvI-39" value="" style="rounded=1;whiteSpace=wrap;html=1;fillColor=#e1d5e7;strokeColor=#9673a6;" vertex="1" parent="1">
          <mxGeometry x="154" y="750" width="590" height="240" as="geometry" />
        </mxCell>
        <mxCell id="ng57SSePkaUnMk2hDVvI-1" value="&lt;font style=&quot;font-size: 24px;&quot;&gt;读入各种业务的金融数据、输出numpy&lt;/font&gt;" style="rounded=0;whiteSpace=wrap;html=1;fillColor=#d5e8d4;strokeColor=#82b366;" vertex="1" parent="1">
          <mxGeometry x="320" y="310" width="220" height="250" as="geometry" />
        </mxCell>
        <mxCell id="ng57SSePkaUnMk2hDVvI-2" value="&lt;span style=&quot;font-size: 24px;&quot;&gt;&lt;b&gt;模型训练&lt;/b&gt;&lt;/span&gt;" style="rounded=0;whiteSpace=wrap;html=1;fillColor=#dae8fc;strokeColor=#6c8ebf;" vertex="1" parent="1">
          <mxGeometry x="700" y="310" width="200" height="250" as="geometry" />
        </mxCell>
        <mxCell id="ng57SSePkaUnMk2hDVvI-9" value="" style="shape=flexArrow;endArrow=classic;html=1;rounded=0;" edge="1" parent="1">
          <mxGeometry width="50" height="50" relative="1" as="geometry">
            <mxPoint x="550" y="439" as="sourcePoint" />
            <mxPoint x="688" y="439" as="targetPoint" />
          </mxGeometry>
        </mxCell>
        <mxCell id="ng57SSePkaUnMk2hDVvI-10" value="&lt;font color=&quot;#ff66ff&quot; style=&quot;font-size: 17px;&quot;&gt;Featrue:np.ndarray&lt;br&gt;Label:np.ndarray&lt;/font&gt;" style="text;html=1;align=center;verticalAlign=middle;resizable=0;points=[];autosize=1;strokeColor=none;fillColor=none;" vertex="1" parent="1">
          <mxGeometry x="530" y="385" width="170" height="50" as="geometry" />
        </mxCell>
        <mxCell id="ng57SSePkaUnMk2hDVvI-15" style="rounded=0;orthogonalLoop=1;jettySize=auto;html=1;entryX=0;entryY=0.5;entryDx=0;entryDy=0;" edge="1" parent="1" source="ng57SSePkaUnMk2hDVvI-11" target="ng57SSePkaUnMk2hDVvI-1">
          <mxGeometry relative="1" as="geometry" />
        </mxCell>
        <mxCell id="ng57SSePkaUnMk2hDVvI-11" value="&lt;font style=&quot;font-size: 24px;&quot;&gt;T0&lt;/font&gt;" style="ellipse;whiteSpace=wrap;html=1;" vertex="1" parent="1">
          <mxGeometry x="100" y="270" width="120" height="100" as="geometry" />
        </mxCell>
        <mxCell id="ng57SSePkaUnMk2hDVvI-16" style="rounded=0;orthogonalLoop=1;jettySize=auto;html=1;entryX=0;entryY=0.5;entryDx=0;entryDy=0;" edge="1" parent="1" source="ng57SSePkaUnMk2hDVvI-12" target="ng57SSePkaUnMk2hDVvI-1">
          <mxGeometry relative="1" as="geometry" />
        </mxCell>
        <mxCell id="ng57SSePkaUnMk2hDVvI-12" value="&lt;font style=&quot;font-size: 23px;&quot;&gt;Alpha&lt;/font&gt;" style="ellipse;whiteSpace=wrap;html=1;" vertex="1" parent="1">
          <mxGeometry x="100" y="485" width="120" height="100" as="geometry" />
        </mxCell>
        <mxCell id="ng57SSePkaUnMk2hDVvI-20" value="" style="ellipse;whiteSpace=wrap;html=1;aspect=fixed;fillColor=#000000;" vertex="1" parent="1">
          <mxGeometry x="155" y="400" width="10" height="10" as="geometry" />
        </mxCell>
        <mxCell id="ng57SSePkaUnMk2hDVvI-21" value="" style="ellipse;whiteSpace=wrap;html=1;aspect=fixed;fillColor=#000000;" vertex="1" parent="1">
          <mxGeometry x="155" y="422" width="10" height="10" as="geometry" />
        </mxCell>
        <mxCell id="ng57SSePkaUnMk2hDVvI-22" value="" style="ellipse;whiteSpace=wrap;html=1;aspect=fixed;fillColor=#000000;" vertex="1" parent="1">
          <mxGeometry x="154" y="444" width="10" height="10" as="geometry" />
        </mxCell>
        <mxCell id="ng57SSePkaUnMk2hDVvI-38" value="&lt;h1&gt;rolling 0&lt;/h1&gt;" style="rounded=1;whiteSpace=wrap;html=1;fillColor=#e1d5e7;strokeColor=#9673a6;align=center;verticalAlign=top;labelPosition=center;verticalLabelPosition=middle;horizontal=1;" vertex="1" parent="1">
          <mxGeometry x="170" y="780" width="600" height="240" as="geometry" />
        </mxCell>
        <mxCell id="ng57SSePkaUnMk2hDVvI-23" value="&lt;font style=&quot;font-size: 24px;&quot;&gt;将各种不同数据集的格式的复杂性在模型训练前统一掉，模型训练看到的只有numpy&lt;/font&gt;" style="text;html=1;align=center;verticalAlign=middle;resizable=0;points=[];autosize=1;strokeColor=none;fillColor=none;" vertex="1" parent="1">
          <mxGeometry x="100" y="190" width="910" height="40" as="geometry" />
        </mxCell>
        <mxCell id="ng57SSePkaUnMk2hDVvI-24" value="截图占位符" style="ellipse;whiteSpace=wrap;html=1;" vertex="1" parent="1">
          <mxGeometry x="-30" y="130" width="120" height="80" as="geometry" />
        </mxCell>
        <mxCell id="ng57SSePkaUnMk2hDVvI-27" value="&lt;p style=&quot;line-height: 120%;&quot;&gt;&lt;font style=&quot;font-size: 14px;&quot;&gt;&lt;b&gt;seed147&lt;/b&gt;&lt;/font&gt;&lt;/p&gt;" style="rounded=0;whiteSpace=wrap;html=1;fillColor=#dae8fc;strokeColor=#6c8ebf;align=center;labelPosition=center;verticalLabelPosition=middle;verticalAlign=top;" vertex="1" parent="1">
          <mxGeometry x="180" y="850" width="245" height="110" as="geometry" />
        </mxCell>
        <mxCell id="ng57SSePkaUnMk2hDVvI-25" value="&lt;b&gt;label0&lt;/b&gt;" style="rounded=0;whiteSpace=wrap;html=1;fillColor=#d5e8d4;strokeColor=#82b366;" vertex="1" parent="1">
          <mxGeometry x="210" y="890" width="70" height="60" as="geometry" />
        </mxCell>
        <mxCell id="ng57SSePkaUnMk2hDVvI-28" value="" style="rounded=0;whiteSpace=wrap;html=1;fillColor=#dae8fc;strokeColor=#6c8ebf;" vertex="1" parent="1">
          <mxGeometry x="820" y="700" width="50" height="30" as="geometry" />
        </mxCell>
        <mxCell id="ng57SSePkaUnMk2hDVvI-29" value="最小可训练单元" style="text;html=1;align=center;verticalAlign=middle;resizable=0;points=[];autosize=1;strokeColor=none;fillColor=none;" vertex="1" parent="1">
          <mxGeometry x="870" y="700" width="110" height="30" as="geometry" />
        </mxCell>
        <mxCell id="ng57SSePkaUnMk2hDVvI-30" value="&lt;p style=&quot;line-height: 120%;&quot;&gt;&lt;font style=&quot;font-size: 14px;&quot;&gt;&lt;b&gt;seed1821&lt;/b&gt;&lt;/font&gt;&lt;/p&gt;" style="rounded=0;whiteSpace=wrap;html=1;fillColor=#dae8fc;strokeColor=#6c8ebf;align=center;labelPosition=center;verticalLabelPosition=middle;verticalAlign=top;" vertex="1" parent="1">
          <mxGeometry x="490" y="850" width="245" height="110" as="geometry" />
        </mxCell>
        <mxCell id="ng57SSePkaUnMk2hDVvI-31" value="&lt;b&gt;label0&lt;/b&gt;" style="rounded=0;whiteSpace=wrap;html=1;fillColor=#d5e8d4;strokeColor=#82b366;" vertex="1" parent="1">
          <mxGeometry x="510" y="890" width="70" height="60" as="geometry" />
        </mxCell>
        <mxCell id="ng57SSePkaUnMk2hDVvI-26" value="&lt;font style=&quot;font-size: 13px;&quot;&gt;&lt;b&gt;label1&lt;/b&gt;&lt;/font&gt;" style="rounded=0;whiteSpace=wrap;html=1;fillColor=#d5e8d4;strokeColor=#82b366;" vertex="1" parent="1">
          <mxGeometry x="630" y="890" width="70" height="60" as="geometry" />
        </mxCell>
        <mxCell id="ng57SSePkaUnMk2hDVvI-32" value="&lt;font style=&quot;font-size: 13px;&quot;&gt;&lt;b&gt;label1&lt;/b&gt;&lt;/font&gt;" style="rounded=0;whiteSpace=wrap;html=1;fillColor=#d5e8d4;strokeColor=#82b366;" vertex="1" parent="1">
          <mxGeometry x="320" y="890" width="70" height="60" as="geometry" />
        </mxCell>
        <mxCell id="ng57SSePkaUnMk2hDVvI-33" value="" style="ellipse;whiteSpace=wrap;html=1;aspect=fixed;fillColor=#000000;" vertex="1" parent="1">
          <mxGeometry x="430" y="910" width="10" height="10" as="geometry" />
        </mxCell>
        <mxCell id="ng57SSePkaUnMk2hDVvI-34" value="" style="ellipse;whiteSpace=wrap;html=1;aspect=fixed;fillColor=#000000;" vertex="1" parent="1">
          <mxGeometry x="450" y="910" width="10" height="10" as="geometry" />
        </mxCell>
        <mxCell id="ng57SSePkaUnMk2hDVvI-35" value="" style="ellipse;whiteSpace=wrap;html=1;aspect=fixed;fillColor=#000000;" vertex="1" parent="1">
          <mxGeometry x="470" y="910" width="10" height="10" as="geometry" />
        </mxCell>
      </root>
    </mxGraphModel>
  </diagram>
</mxfile>
